<svg width="1290" height="2796" viewBox="0 0 1290 2796" fill="none" xmlns="http://www.w3.org/2000/svg">
  <defs>
    <linearGradient id="bg" x1="130" y1="60" x2="1140" y2="2700" gradientUnits="userSpaceOnUse">
      <stop stop-color="#F5F7FD"/>
      <stop offset="1" stop-color="#E8EEF9"/>
    </linearGradient>
  </defs>

  <rect width="1290" height="2796" fill="url(#bg)"/>
  <rect x="84" y="78" width="1122" height="2640" rx="120" fill="#FFFFFF" stroke="#CBD8EE" stroke-width="12"/>

  <text x="180" y="246" fill="#223F73" font-family="Inter, Arial, sans-serif" font-size="54" font-weight="700">Data</text>
  <text x="180" y="300" fill="#577199" font-family="Inter, Arial, sans-serif" font-size="28">Balanced Day score and trend tiles</text>

  <rect x="150" y="360" width="990" height="360" rx="58" fill="#F7FAFF" stroke="#D4E0F1" stroke-width="6"/>
  <text x="210" y="456" fill="#294D84" font-family="Inter, Arial, sans-serif" font-size="30" font-weight="600">Weekly Summary</text>

  <rect x="210" y="512" width="250" height="162" rx="30" fill="#EBF3FF"/>
  <rect x="470" y="512" width="250" height="162" rx="30" fill="#EAF7F3"/>
  <rect x="730" y="512" width="350" height="162" rx="30" fill="#FFF4E9"/>

  <text x="238" y="566" fill="#3B659D" font-family="Inter, Arial, sans-serif" font-size="22">Balanced Day</text>
  <text x="238" y="640" fill="#173E74" font-family="Inter, Arial, sans-serif" font-size="56" font-weight="700">78</text>

  <text x="498" y="566" fill="#1B7B67" font-family="Inter, Arial, sans-serif" font-size="22">Adherence</text>
  <text x="498" y="640" fill="#0B5747" font-family="Inter, Arial, sans-serif" font-size="56" font-weight="700">84%</text>

  <text x="758" y="566" fill="#A2632A" font-family="Inter, Arial, sans-serif" font-size="22">Experiment Effect</text>
  <text x="758" y="640" fill="#7E4A1D" font-family="Inter, Arial, sans-serif" font-size="56" font-weight="700">+12%</text>

  <rect x="150" y="780" width="990" height="860" rx="58" fill="#F7FAFF" stroke="#D4E0F1" stroke-width="6"/>
  <text x="210" y="872" fill="#294D84" font-family="Inter, Arial, sans-serif" font-size="30" font-weight="600">Trends</text>

  <path d="M210 1080 C320 1000, 430 1150, 530 1060 C630 970, 760 1180, 900 1020 C960 950, 1010 980, 1080 940" stroke="#2E79D8" stroke-width="18" stroke-linecap="round"/>
  <path d="M210 1180 C320 1140, 450 1280, 560 1200 C670 1120, 770 1290, 900 1220 C960 1190, 1020 1240, 1080 1200" stroke="#18B59A" stroke-width="14" stroke-linecap="round"/>

  <rect x="210" y="1280" width="870" height="70" rx="28" fill="#EDF4FF"/>
  <text x="246" y="1324" fill="#3D6592" font-family="Inter, Arial, sans-serif" font-size="23">Blue: Readiness  •  Teal: Load</text>

  <rect x="210" y="1380" width="870" height="74" rx="30" fill="#EAF3FF"/>
  <text x="244" y="1426" fill="#345D8A" font-family="Inter, Arial, sans-serif" font-size="24">7-day trend indicates improved recovery stability.</text>

  <rect x="150" y="1702" width="990" height="852" rx="58" fill="#F7FAFF" stroke="#D4E0F1" stroke-width="6"/>
  <text x="210" y="1796" fill="#294D84" font-family="Inter, Arial, sans-serif" font-size="30" font-weight="600">History & Insights</text>

  <rect x="210" y="1852" width="870" height="126" rx="30" fill="#EDF4FF"/>
  <text x="244" y="1924" fill="#355E8E" font-family="Inter, Arial, sans-serif" font-size="24">Best protocol this week: Focus Prep</text>

  <rect x="210" y="1994" width="870" height="126" rx="30" fill="#EDF4FF"/>
  <text x="244" y="2066" fill="#355E8E" font-family="Inter, Arial, sans-serif" font-size="24">Most sensitive driver: Sleep consistency</text>

  <rect x="210" y="2136" width="870" height="126" rx="30" fill="#EDF4FF"/>
  <text x="244" y="2208" fill="#355E8E" font-family="Inter, Arial, sans-serif" font-size="24">Weekly review: high confidence pattern</text>

  <rect x="210" y="2288" width="870" height="210" rx="36" fill="#E9F0FB"/>
  <text x="244" y="2360" fill="#355E8E" font-family="Inter, Arial, sans-serif" font-size="24">Data is presented as estimate + rationale,</text>
  <text x="244" y="2412" fill="#355E8E" font-family="Inter, Arial, sans-serif" font-size="24">so users can act with confidence and context.</text>
</svg>
