<svg width="1290" height="2796" viewBox="0 0 1290 2796" fill="none" xmlns="http://www.w3.org/2000/svg">
  <defs>
    <linearGradient id="bg" x1="120" y1="60" x2="1180" y2="2740" gradientUnits="userSpaceOnUse">
      <stop stop-color="#F4FAFD"/>
      <stop offset="1" stop-color="#E4F0F7"/>
    </linearGradient>
    <linearGradient id="card" x1="180" y1="310" x2="1080" y2="1580" gradientUnits="userSpaceOnUse">
      <stop stop-color="#FFFFFF"/>
      <stop offset="1" stop-color="#EEF6FB"/>
    </linearGradient>
  </defs>

  <rect width="1290" height="2796" fill="url(#bg)"/>
  <rect x="84" y="78" width="1122" height="2640" rx="120" fill="#FFFFFF" stroke="#C2D9E8" stroke-width="12"/>

  <text x="180" y="246" fill="#0F2E43" font-family="Inter, Arial, sans-serif" font-size="54" font-weight="700">Today</text>
  <text x="180" y="300" fill="#4C7086" font-family="Inter, Arial, sans-serif" font-size="28">Signals are mostly stable right now</text>

  <rect x="150" y="360" width="990" height="430" rx="56" fill="url(#card)" stroke="#CDE2EF" stroke-width="6"/>
  <text x="210" y="462" fill="#1B4F6A" font-family="Inter, Arial, sans-serif" font-size="30" font-weight="600">Current State</text>

  <rect x="210" y="506" width="250" height="228" rx="34" fill="#ECF8FF"/>
  <rect x="470" y="506" width="250" height="228" rx="34" fill="#E9F7F3"/>
  <rect x="730" y="506" width="350" height="228" rx="34" fill="#FFF3E9"/>

  <text x="240" y="560" fill="#2D6D90" font-family="Inter, Arial, sans-serif" font-size="22">Readiness</text>
  <text x="240" y="650" fill="#0E3B55" font-family="Inter, Arial, sans-serif" font-size="64" font-weight="700">74</text>

  <text x="500" y="560" fill="#1D7F6B" font-family="Inter, Arial, sans-serif" font-size="22">Load</text>
  <text x="500" y="650" fill="#0A5445" font-family="Inter, Arial, sans-serif" font-size="64" font-weight="700">39</text>

  <text x="760" y="560" fill="#A2632A" font-family="Inter, Arial, sans-serif" font-size="22">Consistency</text>
  <text x="760" y="650" fill="#804816" font-family="Inter, Arial, sans-serif" font-size="64" font-weight="700">82%</text>

  <rect x="150" y="848" width="990" height="442" rx="56" fill="#F8FCFF" stroke="#CDE2EF" stroke-width="6"/>
  <text x="210" y="940" fill="#1B4F6A" font-family="Inter, Arial, sans-serif" font-size="30" font-weight="600">Best Next Step</text>
  <text x="210" y="996" fill="#4C7086" font-family="Inter, Arial, sans-serif" font-size="26">Focus Prep • 6 minutes</text>
  <text x="210" y="1068" fill="#2A4E63" font-family="Inter, Arial, sans-serif" font-size="26">You are stable enough for focused output.</text>
  <text x="210" y="1112" fill="#2A4E63" font-family="Inter, Arial, sans-serif" font-size="26">A short protocol should preserve momentum.</text>
  <rect x="210" y="1160" width="870" height="92" rx="46" fill="#20B5E4"/>
  <text x="490" y="1218" fill="#FFFFFF" font-family="Inter, Arial, sans-serif" font-size="32" font-weight="700">Start Protocol</text>

  <rect x="150" y="1348" width="990" height="516" rx="56" fill="#F8FCFF" stroke="#CDE2EF" stroke-width="6"/>
  <text x="210" y="1440" fill="#1B4F6A" font-family="Inter, Arial, sans-serif" font-size="30" font-weight="600">12-Hour Timeline</text>
  <path d="M210 1560 C300 1500, 420 1610, 520 1540 C620 1470, 730 1650, 860 1560 C930 1510, 1000 1530, 1080 1490" stroke="#23C8EB" stroke-width="20" stroke-linecap="round"/>
  <path d="M210 1650 C320 1600, 430 1720, 560 1660 C640 1630, 760 1750, 860 1680 C940 1620, 1020 1700, 1080 1660" stroke="#6EDCB6" stroke-width="14" stroke-linecap="round" opacity="0.9"/>

  <rect x="210" y="1760" width="870" height="74" rx="30" fill="#E9F5FD"/>
  <text x="252" y="1806" fill="#33647F" font-family="Inter, Arial, sans-serif" font-size="24">High confidence • Updated 3m ago</text>

  <rect x="150" y="1924" width="990" height="630" rx="56" fill="#F8FCFF" stroke="#CDE2EF" stroke-width="6"/>
  <text x="210" y="2016" fill="#1B4F6A" font-family="Inter, Arial, sans-serif" font-size="30" font-weight="600">Quick Check-In</text>
  <text x="210" y="2068" fill="#4C7086" font-family="Inter, Arial, sans-serif" font-size="24">How intense does your current load feel?</text>

  <rect x="210" y="2120" width="870" height="20" rx="10" fill="#D9EAF4"/>
  <rect x="210" y="2120" width="520" height="20" rx="10" fill="#23C8EB"/>
  <circle cx="730" cy="2130" r="24" fill="#FFFFFF" stroke="#23C8EB" stroke-width="8"/>

  <rect x="210" y="2194" width="870" height="92" rx="46" fill="#0E3B55"/>
  <text x="542" y="2252" fill="#FFFFFF" font-family="Inter, Arial, sans-serif" font-size="30" font-weight="700">Save</text>

  <rect x="210" y="2328" width="870" height="180" rx="34" fill="#F1F8FD"/>
  <text x="244" y="2392" fill="#355F78" font-family="Inter, Arial, sans-serif" font-size="24">If high distress persists or worsens, seek licensed support.</text>
  <text x="244" y="2444" fill="#355F78" font-family="Inter, Arial, sans-serif" font-size="24">This app is wellness support, not emergency care.</text>
</svg>
