<svg width="1290" height="2796" viewBox="0 0 1290 2796" fill="none" xmlns="http://www.w3.org/2000/svg">
  <defs>
    <linearGradient id="bg" x1="120" y1="70" x2="1160" y2="2710" gradientUnits="userSpaceOnUse">
      <stop stop-color="#F7FBF8"/>
      <stop offset="1" stop-color="#E8F3ED"/>
    </linearGradient>
  </defs>

  <rect width="1290" height="2796" fill="url(#bg)"/>
  <rect x="84" y="78" width="1122" height="2640" rx="120" fill="#FFFFFF" stroke="#CBE3D7" stroke-width="12"/>

  <text x="180" y="246" fill="#205C57" font-family="Inter, Arial, sans-serif" font-size="54" font-weight="700">Experiments</text>
  <text x="180" y="300" fill="#4A7A73" font-family="Inter, Arial, sans-serif" font-size="28">7-day protocol validation cycle</text>

  <rect x="150" y="360" width="990" height="706" rx="58" fill="#F8FCFA" stroke="#D3E9DF" stroke-width="6"/>
  <text x="210" y="452" fill="#1F635E" font-family="Inter, Arial, sans-serif" font-size="30" font-weight="600">Active Experiment</text>
  <text x="210" y="514" fill="#2F6F68" font-family="Inter, Arial, sans-serif" font-size="38" font-weight="700">Focus Prep at 2:00 PM</text>

  <rect x="210" y="560" width="870" height="78" rx="32" fill="#E8F5EF"/>
  <text x="246" y="610" fill="#336E67" font-family="Inter, Arial, sans-serif" font-size="24">Day 4 of 7 • Adherence 71% • Confidence medium-high</text>

  <rect x="210" y="672" width="870" height="300" rx="34" fill="#ECF8F3"/>
  <text x="246" y="744" fill="#2E6B64" font-family="Inter, Arial, sans-serif" font-size="24">Objective</text>
  <text x="246" y="790" fill="#315F5A" font-family="Inter, Arial, sans-serif" font-size="24">Increase afternoon focus consistency</text>
  <text x="246" y="856" fill="#2E6B64" font-family="Inter, Arial, sans-serif" font-size="24">Target</text>
  <text x="246" y="902" fill="#315F5A" font-family="Inter, Arial, sans-serif" font-size="24">Complete 1 guided session/day for 7 days</text>

  <rect x="150" y="1122" width="990" height="746" rx="58" fill="#F8FCFA" stroke="#D3E9DF" stroke-width="6"/>
  <text x="210" y="1216" fill="#1F635E" font-family="Inter, Arial, sans-serif" font-size="30" font-weight="600">Progress</text>

  <rect x="210" y="1270" width="870" height="112" rx="28" fill="#EAF7F1"/>
  <text x="246" y="1338" fill="#315F5A" font-family="Inter, Arial, sans-serif" font-size="24">Sessions completed: 5 / 7</text>

  <rect x="210" y="1400" width="870" height="112" rx="28" fill="#EAF7F1"/>
  <text x="246" y="1468" fill="#315F5A" font-family="Inter, Arial, sans-serif" font-size="24">Average impact score: +1.6</text>

  <rect x="210" y="1530" width="870" height="112" rx="28" fill="#EAF7F1"/>
  <text x="246" y="1598" fill="#315F5A" font-family="Inter, Arial, sans-serif" font-size="24">Readiness delta trend: +8%</text>

  <rect x="210" y="1660" width="870" height="170" rx="34" fill="#E5F4EC"/>
  <text x="246" y="1734" fill="#315F5A" font-family="Inter, Arial, sans-serif" font-size="24">Preliminary effect estimate indicates positive response.</text>
  <text x="246" y="1782" fill="#315F5A" font-family="Inter, Arial, sans-serif" font-size="24">Complete 3 more days for stronger confidence.</text>

  <rect x="150" y="1924" width="990" height="630" rx="58" fill="#F8FCFA" stroke="#D3E9DF" stroke-width="6"/>
  <text x="210" y="2018" fill="#1F635E" font-family="Inter, Arial, sans-serif" font-size="30" font-weight="600">Next Action</text>
  <rect x="210" y="2072" width="870" height="96" rx="46" fill="#11B498"/>
  <text x="470" y="2134" fill="#FFFFFF" font-family="Inter, Arial, sans-serif" font-size="30" font-weight="700">Log Today’s Session</text>

  <rect x="210" y="2218" width="870" height="254" rx="34" fill="#EAF7F1"/>
  <text x="244" y="2290" fill="#315F5A" font-family="Inter, Arial, sans-serif" font-size="24">Experiment insights update after each check-in.</text>
  <text x="244" y="2342" fill="#315F5A" font-family="Inter, Arial, sans-serif" font-size="24">Use this to confirm what actually helps your system.</text>
</svg>
